<svg width="68" height="68" viewBox="0 0 68 68" fill="none" xmlns="http://www.w3.org/2000/svg">
<path d="M34.0252 39.4383C34.0188 39.4138 34.0152 39.3888 34.0146 39.3635V39.3535L29.6764 25.2119C29.5319 24.7541 28.9858 24.5492 28.5077 24.5492C28.039 24.5492 27.4859 24.7234 27.3389 25.2125L23.005 39.3425L22.9925 39.3782C22.9718 39.4274 22.9605 39.48 22.9592 39.5334C22.9592 40.0353 23.6291 40.3435 24.1093 40.3435C24.4801 40.3435 24.7434 40.1792 24.8317 39.892L25.7526 36.7733H31.2423L32.1635 39.8928C32.2503 40.1749 32.5124 40.3434 32.8645 40.3434C33.4062 40.3434 34.036 39.9802 34.036 39.512C34.0352 39.4871 34.0315 39.4624 34.0252 39.4383ZM30.7781 35.175H26.1961L28.507 27.4838L30.7781 35.175Z" fill="white"/>
<path d="M36.6678 40.3437H40.4292C43.4319 40.3437 45.0856 38.6748 45.0856 35.6447V29.3759C45.0856 26.3457 43.4319 24.6769 40.4292 24.6769H36.6678C36.1207 24.6769 35.7939 25.0239 35.7939 25.3595V39.661C35.7939 39.9965 36.1207 40.3437 36.6678 40.3437ZM43.1678 35.6447C43.1678 37.5754 42.2207 38.5959 40.4292 38.5959H37.7117V26.4246H40.4292C42.2207 26.4246 43.1678 27.4451 43.1678 29.3758V35.6447Z" fill="white"/>
<path d="M49.4992 49.6627C49.564 49.6199 49.6195 49.5644 49.6623 49.4996C53.7549 45.3796 56.0502 39.8072 56.0469 34C56.0469 21.8433 46.1567 11.9531 34 11.9531C28.1931 11.9498 22.6208 14.245 18.5008 18.3372C18.4691 18.3595 18.4391 18.384 18.411 18.4106C18.3844 18.4387 18.3599 18.4687 18.3377 18.5004C14.2452 22.6204 11.9498 28.1928 11.9531 34C11.9531 46.1567 21.8433 56.0469 34 56.0469C39.807 56.0502 45.3793 53.755 49.4992 49.6627ZM13.5469 34C13.5431 28.8514 15.4886 23.8922 18.9922 20.1195L25.4576 26.585C25.5313 26.6606 25.6192 26.7209 25.7163 26.7623C25.8134 26.8037 25.9177 26.8253 26.0233 26.8261C26.1288 26.8268 26.2335 26.8065 26.3312 26.7665C26.4288 26.7264 26.5175 26.6674 26.5922 26.5927C26.6668 26.5181 26.7259 26.4294 26.766 26.3317C26.806 26.234 26.8263 26.1294 26.8256 26.0238C26.8249 25.9183 26.8032 25.8139 26.7618 25.7168C26.7205 25.6197 26.6602 25.5318 26.5846 25.4582L20.1195 18.9922C23.8922 15.4885 28.8514 13.543 34 13.5469C45.2779 13.5469 54.4531 22.7221 54.4531 34C54.4569 39.1486 52.5114 44.1078 49.0078 47.8805L42.2802 41.1528C42.1308 41.0033 41.9281 40.9193 41.7167 40.9193C41.5054 40.9193 41.3027 41.0033 41.1532 41.1527C41.0038 41.3021 40.9198 41.5048 40.9198 41.7162C40.9198 41.9275 41.0037 42.1302 41.1532 42.2797L47.8805 49.0078C44.1079 52.5115 39.1487 54.457 34 54.4531C22.7221 54.4531 13.5469 45.2779 13.5469 34Z" fill="white"/>
<path d="M61.3594 34C61.3594 18.914 49.086 6.64062 34 6.64062C18.914 6.64062 6.64062 18.914 6.64062 34C6.64062 49.086 18.914 61.3594 34 61.3594C49.086 61.3594 61.3594 49.086 61.3594 34ZM8.23438 34C8.23438 19.7928 19.7928 8.23438 34 8.23438C48.2072 8.23438 59.7656 19.7928 59.7656 34C59.7656 48.2072 48.2072 59.7656 34 59.7656C19.7928 59.7656 8.23438 48.2072 8.23438 34Z" fill="white"/>
</svg>
