<svg width="58" height="58" viewBox="0 0 58 58" fill="none" xmlns="http://www.w3.org/2000/svg">
<g clip-path="url(#clip0_30_195)">
<path d="M28.8314 18.1237C33.6138 18.1237 37.4908 14.2694 37.4908 9.51495C37.4908 4.7605 33.6138 0.90625 28.8314 0.90625C24.0489 0.90625 20.1719 4.7605 20.1719 9.51495C20.1719 14.2694 24.0489 18.1237 28.8314 18.1237Z" stroke="white" stroke-width="1.92551" stroke-miterlimit="10"/>
<path d="M24.2738 7.32204C25.2409 7.91727 26.3165 8.31725 27.4392 8.49912C28.5618 8.681 29.7095 8.6412 30.8167 8.38202C31.9239 8.12283 32.9689 7.64934 33.892 6.98857C34.815 6.3278 35.5981 5.49271 36.1964 4.53101" stroke="white" stroke-width="1.92551" stroke-miterlimit="10"/>
<path d="M21.5392 4.64429C21.9442 5.26829 22.4265 5.83914 22.9749 6.34337" stroke="white" stroke-width="1.92551" stroke-miterlimit="10"/>
<path d="M33.389 16.7644L39.3139 18.5768C39.3139 18.5768 41.5927 19.0299 41.5927 22.6546C41.5927 25.8262 42.5042 35.3411 42.5042 35.3411C42.5042 35.3411 44.783 40.7782 41.5927 41.6843C38.4023 42.5905 37.9466 39.872 37.9466 39.872L36.1235 28.9978V25.3731" stroke="white" stroke-width="1.92551" stroke-miterlimit="10"/>
<path d="M37.4908 50.746V36.7002" stroke="white" stroke-width="1.92551" stroke-miterlimit="10"/>
<path d="M23.818 52.1053V47.5744L27.4641 40.325H29.2871L30.6544 57.0893H37.4908V52.1053" stroke="white" stroke-width="1.92551" stroke-miterlimit="10"/>
<path d="M16.9816 55.277H23.818V53.4646" stroke="white" stroke-width="1.92551" stroke-miterlimit="10"/>
<path d="M37.4908 17.6705C37.4908 17.6705 38.4023 13.1396 44.3272 13.1396C50.2521 13.1396 50.2521 19.0298 50.2521 19.0298C50.2521 19.0298 49.3406 26.2792 55.7212 26.2792H58" stroke="white" stroke-width="1.92551" stroke-miterlimit="10"/>
<path d="M36.5793 32.1693C36.5793 32.1693 40.2254 32.6224 42.0484 30.3569" stroke="white" stroke-width="1.92551" stroke-miterlimit="10"/>
<path d="M30.1986 48.4805H34.7562" stroke="white" stroke-width="1.92551" stroke-miterlimit="10"/>
<path d="M30.6544 57.0893C30.6544 56.1881 31.0146 55.3238 31.6556 54.6865C32.2966 54.0492 33.1661 53.6912 34.0726 53.6912C34.9792 53.6912 35.8486 54.0492 36.4896 54.6865C37.1307 55.3238 37.4908 56.1881 37.4908 57.0893" stroke="white" stroke-width="1.92551" stroke-miterlimit="10"/>
<path d="M23.818 48.0275L16.9816 47.1213" stroke="white" stroke-width="1.92551" stroke-miterlimit="10"/>
<path d="M21.5392 27.6383V25.3729L12.8798 26.7322L11.5125 22.6544L16.5258 19.9358L20.1719 18.1235L24.7295 17.2173" stroke="white" stroke-width="1.92551" stroke-miterlimit="10"/>
<path d="M16.9816 55.277H12.424C12.424 53.4012 13.7913 51.6523 16.5258 51.6523V44.4029L21.5392 34.4349V29.4509" stroke="white" stroke-width="1.92551" stroke-miterlimit="10"/>
<path d="M11.5125 22.6545L5.13186 24.0138C4.82785 23.742 4.45587 23.5565 4.05493 23.4768C3.65399 23.3971 3.23886 23.4261 2.85306 23.5607C1.48578 24.0138 0.574265 24.92 1.03003 26.7323C1.48578 28.5447 2.85306 30.8102 6.04338 28.9978L12.8798 26.7323" stroke="white" stroke-width="1.92551" stroke-miterlimit="10"/>
<path d="M3.76459 26.2793L7.41067 56.1832" stroke="white" stroke-width="1.92551" stroke-miterlimit="10"/>
<path d="M1.48578 9.06177L3.32705 23.5606" stroke="white" stroke-width="1.92551" stroke-miterlimit="10"/>
<path d="M5.58762 12.2334C6.82094 12.3156 8.05868 12.1618 9.2337 11.7803C10.9429 11.1113 12.6162 10.3552 14.2471 9.51489L15.1586 16.3112C13.5277 17.1515 11.8544 17.9077 10.1452 18.5767C7.86642 19.4829 2.85306 18.5767 2.85306 18.5767" stroke="white" stroke-width="1.92551" stroke-miterlimit="10"/>
<path d="M1.94153 11.7803C1.94153 11.7803 2.70265 11.9162 3.76457 12.034" stroke="white" stroke-width="1.92551" stroke-miterlimit="10"/>
<path d="M12.424 55.2769C12.424 55.2769 1.94153 55.2769 1.94153 57.9954" stroke="white" stroke-width="1.92551" stroke-miterlimit="10"/>
<path d="M23.818 55.2769C23.818 55.2769 27.4641 55.2769 27.4641 57.9954" stroke="white" stroke-width="1.92551" stroke-miterlimit="10"/>
</g>
<defs>
<clipPath id="clip0_30_195">
<rect width="58" height="58" fill="white"/>
</clipPath>
</defs>
</svg>
