<svg width="57" height="58" viewBox="0 0 57 58" fill="none" xmlns="http://www.w3.org/2000/svg">
<g clip-path="url(#clip0_30_239)">
<path d="M7.67102 34.0566V41.2133" stroke="white" stroke-width="2.09763" stroke-miterlimit="10"/>
<path d="M4.09271 37.6348H11.2493" stroke="white" stroke-width="2.09763" stroke-miterlimit="10"/>
<path d="M40.6184 3.3501L35.5595 8.40894" stroke="white" stroke-width="2.09763" stroke-miterlimit="10"/>
<path d="M35.5595 3.3501L40.6184 8.40894" stroke="white" stroke-width="2.09763" stroke-miterlimit="10"/>
<path d="M17.5114 51.9482H19.3005" stroke="white" stroke-width="2.09763" stroke-miterlimit="10"/>
<path d="M51.9527 3.64087H53.7418" stroke="white" stroke-width="2.09763" stroke-miterlimit="10"/>
<path d="M50.1635 25.1108H51.9527" stroke="white" stroke-width="2.09763" stroke-miterlimit="10"/>
<path d="M0.9617 26.0054H2.75086" stroke="white" stroke-width="2.09763" stroke-miterlimit="10"/>
<path d="M42.1123 42.1079L24.2207 24.2163" stroke="white" stroke-width="2.09763" stroke-miterlimit="10"/>
<path d="M11.2493 23.7688C11.2493 23.7688 26.0099 40.7658 34.0611 40.7658L35.403 39.4239" stroke="white" stroke-width="2.09763" stroke-miterlimit="10"/>
<path d="M34.0611 40.7659L34.9557 47.9226L19.3005 42.1078L17.0641 30.031" stroke="white" stroke-width="2.09763" stroke-miterlimit="10"/>
<path d="M10.8021 23.3216C10.8021 23.3216 13.4858 23.3216 18.406 18.4014" stroke="white" stroke-width="2.09763" stroke-miterlimit="10"/>
<path d="M18.0437 23.7689C19.1199 22.946 20.1377 22.0492 21.0897 21.0852" stroke="white" stroke-width="2.09763" stroke-miterlimit="10"/>
<path d="M13.4858 26.0054C13.4858 26.0054 14.4117 26.0054 16.1695 25.0125" stroke="white" stroke-width="2.09763" stroke-miterlimit="10"/>
<path d="M12.1439 16.165C14.3672 16.165 16.1695 14.3627 16.1695 12.1394C16.1695 9.91609 14.3672 8.11377 12.1439 8.11377C9.92064 8.11377 8.11832 9.91609 8.11832 12.1394C8.11832 14.3627 9.92064 16.165 12.1439 16.165Z" stroke="white" stroke-width="2.09763" stroke-miterlimit="10"/>
<path d="M23.7377 11.2806C11.8845 -0.572526 0.961695 0.95721 0.961695 0.95721C0.961695 0.95721 -0.603817 11.9158 11.2493 23.769" stroke="white" stroke-width="2.09763" stroke-miterlimit="10"/>
<path d="M23.7377 11.2805C23.7377 11.2805 40.7347 26.0411 40.7347 34.0923L36.2976 38.5294" stroke="white" stroke-width="2.09763" stroke-miterlimit="10"/>
<path d="M40.7391 34.0924L47.8957 34.987L42.081 19.3319L30.0042 17.0955" stroke="white" stroke-width="2.09763" stroke-miterlimit="10"/>
<path d="M23.2904 10.8333C23.2904 10.8333 23.2904 13.517 18.3702 18.4372" stroke="white" stroke-width="2.09763" stroke-miterlimit="10"/>
<path d="M25.9741 13.5171C25.9741 13.5171 25.9741 16.2008 21.0539 21.121" stroke="white" stroke-width="2.09763" stroke-miterlimit="10"/>
<path d="M51.9527 43.4497C50.6041 42.2422 48.8417 41.6013 47.0325 41.6605L41.665 47.028C41.665 47.028 39.8759 51.9482 45.6906 55.0792C45.6906 55.0792 45.6906 50.159 48.3744 50.6063C51.0581 51.0536 52.8472 51.9482 55.531 55.5265C55.531 55.5265 55.8754 50.1858 53.8894 46.1334" stroke="white" stroke-width="2.09763" stroke-miterlimit="10"/>
</g>
<defs>
<clipPath id="clip0_30_239">
<rect width="56.4479" height="58" fill="white"/>
</clipPath>
</defs>
</svg>
