<svg width="58" height="58" viewBox="0 0 58 58" fill="none" xmlns="http://www.w3.org/2000/svg">
<path d="M46.6791 2.27394L49.421 0.866943" stroke="white" stroke-width="1.72157" stroke-miterlimit="10"/>
<path d="M33.8809 51.7003C31.804 53.6831 29.3155 55.1822 26.5932 56.0903C23.8709 56.9985 20.9819 57.2934 18.1326 56.9539C15.2833 56.6145 12.544 55.6491 10.1104 54.1267C7.67681 52.6042 5.60892 50.5624 4.05447 48.147C2.50002 45.7315 1.49736 43.0021 1.11811 40.1537C0.738862 37.3052 0.992383 34.4081 1.86057 31.6691C2.72875 28.9302 4.19018 26.417 6.14045 24.3092C8.09073 22.2014 10.4817 20.5509 13.1427 19.4756L44.8664 3.20435" stroke="white" stroke-width="1.72157" stroke-miterlimit="10"/>
<path d="M37.9098 46.2539C37.433 47.205 36.8798 48.1158 36.2556 48.9771" stroke="white" stroke-width="1.72157" stroke-miterlimit="10"/>
<path d="M57.1933 8.12866L38.7528 44.4382" stroke="white" stroke-width="1.72157" stroke-miterlimit="10"/>
<path d="M44.6488 21.291L39.8087 30.8223" stroke="white" stroke-width="1.72157" stroke-miterlimit="10"/>
<path d="M46.0311 18.5679L45.3196 19.9749" stroke="white" stroke-width="1.72157" stroke-miterlimit="10"/>
<path d="M36.2556 13.5116L41.694 10.7249" stroke="white" stroke-width="1.72157" stroke-miterlimit="10"/>
<path d="M28.0981 17.6963L33.4775 14.9368" stroke="white" stroke-width="1.72157" stroke-miterlimit="10"/>
<path d="M48.0387 9.94422L57.3292 0.639893" stroke="white" stroke-width="1.72157" stroke-miterlimit="10"/>
<path d="M22.6144 28.5529C23.4739 27.4412 24.3969 26.3804 25.3789 25.3758C25.3789 25.3758 28.5513 24.0142 29.4577 24.9219C30.3641 25.8296 30.8173 27.6451 29.9109 29.4606" stroke="white" stroke-width="1.72157" stroke-miterlimit="10"/>
<path d="M27.6449 48.977C27.6449 48.977 27.1917 44.8922 22.2066 41.7151C17.2214 38.538 19.4874 33.9993 20.847 31.2761" stroke="white" stroke-width="1.72157" stroke-miterlimit="10"/>
<path d="M7.2511 37.1763C7.2511 37.1763 18.581 35.3608 12.2363 48.0692" stroke="white" stroke-width="1.72157" stroke-miterlimit="10"/>
<path d="M13.5958 38.992L19.0342 38.5381" stroke="white" stroke-width="1.72157" stroke-miterlimit="10"/>
<path d="M29.9109 29.4607C29.9109 29.4607 32.1769 29.0068 33.0833 29.4607C33.9897 29.9146 36.7088 33.5455 33.5365 38.0842C33.5365 38.0842 28.5513 37.6304 27.6449 34.9071C26.7385 32.1839 30.3641 29.0068 30.3641 29.0068" stroke="white" stroke-width="1.72157" stroke-miterlimit="10"/>
<path d="M20.3938 50.7927C22.1181 50.8047 23.8277 50.4744 25.4238 49.8209C27.0199 49.1673 28.4709 48.2036 29.6929 46.9852C30.9149 45.7668 31.8838 44.318 32.5435 42.7225C33.2032 41.127 33.5407 39.4164 33.5365 37.6895" stroke="white" stroke-width="1.72157" stroke-miterlimit="10"/>
<path d="M7.53209 34.4531C7.26953 35.5117 7.13713 36.5985 7.13781 37.6892C7.1387 40.811 8.24259 43.8318 10.254 46.2168C12.2655 48.6017 15.0547 50.1968 18.1278 50.7198" stroke="white" stroke-width="1.72157" stroke-miterlimit="10"/>
<path d="M25.3789 25.3758C25.3789 25.3758 25.8321 22.6526 24.0193 22.6526C22.2066 22.6526 18.1278 24.4681 18.1278 24.4681C16.1534 24.818 14.2842 25.6126 12.6614 26.792C11.0386 27.9714 9.70464 29.5047 8.76025 31.2761" stroke="white" stroke-width="1.72157" stroke-miterlimit="10"/>
</svg>
