<svg width="22" height="18" viewBox="0 0 22 18" fill="none" xmlns="http://www.w3.org/2000/svg">
<path d="M0.99513 18H8.95631C9.50591 18 9.95144 17.5545 9.95144 17.0049C9.95144 16.4553 9.50591 16.0097 8.95631 16.0097H2.06093C2.56006 12.5846 5.49493 10.0432 8.95631 10.0389C11.7284 10.0629 13.9951 7.83515 14.0192 5.06307C14.0433 2.291 11.8155 0.0242626 9.04336 0.000192484C6.27128 -0.023831 4.00454 2.20391 3.98052 4.97598C3.96825 6.39225 4.55484 7.74782 5.59569 8.70834C2.21711 10.0789 0.00489798 13.3589 0 17.0049C0 17.5545 0.44553 18 0.99513 18ZM8.95631 2.07768C10.6051 2.07768 11.9417 3.41432 11.9417 5.06312C11.9417 6.71192 10.6051 8.04856 8.95631 8.04856C7.30751 8.04856 5.97087 6.71192 5.97087 5.06312C5.97087 3.41432 7.30751 2.07768 8.95631 2.07768Z" fill="#BF8D81"/>
<path d="M20.898 12.0291H17.9126V9.04365C17.9126 8.49405 17.4671 8.04852 16.9175 8.04852C16.3679 8.04852 15.9223 8.49405 15.9223 9.04365V12.0291H12.9369C12.3873 12.0291 11.9418 12.4746 11.9418 13.0242C11.9418 13.5738 12.3873 14.0193 12.9369 14.0193H15.9223V17.0048C15.9223 17.5544 16.3679 17.9999 16.9175 17.9999C17.4671 17.9999 17.9126 17.5544 17.9126 17.0048V14.0193H20.898C21.4476 14.0193 21.8932 13.5738 21.8932 13.0242C21.8932 12.4747 21.4476 12.0291 20.898 12.0291Z" fill="#BF8D81"/>
</svg>
