<svg width="256" height="14" viewBox="0 0 256 14" fill="none" xmlns="http://www.w3.org/2000/svg">
<path d="M1.46392 1.36735C1.91088 0.93963 2.43877 0.594492 3.02038 0.349757C3.60855 0.113513 4.24224 -0.00547515 4.88156 0.000193414H18.9163V2.65343H4.88156C4.6405 2.65157 4.40155 2.69616 4.17945 2.78451C3.8519 2.91156 3.57222 3.12807 3.37628 3.40621C3.18035 3.68434 3.07718 4.01138 3.08005 4.34523V9.53313C3.08351 9.74903 3.13541 9.96179 3.23237 10.1574C3.33534 10.3558 3.47178 10.5371 3.63638 10.6943C3.80436 10.8509 3.99916 10.9796 4.2126 11.0751C4.4196 11.168 4.64568 11.217 4.87493 11.2187H18.9096V13.8719H4.87493C4.54761 13.8703 4.22136 13.8368 3.90133 13.772C3.5925 13.7048 3.29097 13.6108 3.00057 13.4911C2.71091 13.3723 2.43372 13.228 2.17266 13.0603C1.91846 12.8939 1.67916 12.7081 1.45729 12.5047C1.00066 12.0918 0.635907 11.5974 0.384326 11.0501C0.126439 10.4909 -0.00438712 9.88694 0.00020477 9.27715V4.57622C-0.00585715 3.97298 0.122734 3.37533 0.377696 2.822C0.6384 2.27647 1.00706 1.78274 1.46392 1.36735Z" fill="white"/>
<path d="M167.577 7.15238C167.502 6.98281 167.392 6.82837 167.252 6.69802C167.109 6.57112 166.94 6.47189 166.755 6.40634C166.558 6.3396 166.35 6.30545 166.141 6.30542H157.635V8.68923H164.864V13.8719H167.724V7.73567C167.715 7.53452 167.665 7.3367 167.577 7.15238Z" fill="white"/>
<path d="M163.314 11.2148H154.617C154.401 11.2131 154.189 11.1642 153.995 11.0714C153.591 10.8813 153.265 10.5545 153.076 10.1482C152.983 9.95326 152.935 9.74036 152.933 9.52447V4.34132C152.931 4.00795 153.028 3.68155 153.212 3.40383C153.396 3.1261 153.657 2.90964 153.964 2.782C154.173 2.69373 154.397 2.64918 154.623 2.65104H167.724V0.00019324H154.641C154.042 -0.00547022 153.447 0.11341 152.896 0.349442C152.35 0.593957 151.855 0.938784 151.436 1.36612C151.008 1.78538 150.665 2.2829 150.423 2.83187C150.184 3.3847 150.063 3.98189 150.069 4.58459V9.28129C150.065 9.89052 150.188 10.4939 150.43 11.0527C150.665 11.5994 151.008 12.0934 151.436 12.5059C151.644 12.7071 151.868 12.8907 152.107 13.0548C152.597 13.3957 153.147 13.6392 153.728 13.7721C154.028 13.8368 154.334 13.8703 154.641 13.8719H163.338L163.314 11.2148Z" fill="white"/>
<path d="M131.153 0H128.631V13.8719H131.153V0Z" fill="#EA424F"/>
<path d="M146.164 3.16241C146.081 2.82232 145.96 2.49195 145.804 2.17695C145.641 1.86681 145.438 1.57767 145.201 1.31621C144.955 1.04635 144.669 0.813087 144.354 0.623882C144.017 0.422961 143.655 0.267674 143.275 0.162332C142.846 0.0512199 142.403 -0.00333093 141.959 0.000157273H132.414V2.65099H141.914C142.114 2.64767 142.313 2.68369 142.498 2.75697C142.659 2.82558 142.803 2.9254 142.922 3.05018C143.034 3.16869 143.12 3.30893 143.172 3.46179C143.231 3.61134 143.261 3.76972 143.262 3.92958V9.93606C143.263 10.095 143.237 10.253 143.185 10.4038C143.132 10.555 143.049 10.6948 142.941 10.8155C142.822 10.9403 142.678 11.0401 142.518 11.1087C142.327 11.1877 142.121 11.226 141.914 11.221H132.414V13.8718H141.959C142.41 13.8749 142.858 13.8203 143.294 13.7096C143.676 13.6075 144.041 13.4543 144.379 13.2543C144.694 13.0711 144.977 12.8417 145.22 12.5744C145.455 12.3128 145.656 12.0236 145.817 11.7137C145.975 11.4043 146.093 11.0776 146.17 10.7407C146.247 10.4027 146.285 10.0576 146.286 9.71152V4.19782C146.287 3.84925 146.246 3.50174 146.164 3.16241Z" fill="#EA424F"/>
<path d="M232.039 5.46394H218.627V0H215.645V13.8719H218.627V8.10859H232.039V5.46394Z" fill="white"/>
<path d="M234.562 11.3498H220.69V13.8719H234.562V11.3498Z" fill="white"/>
<path d="M234.562 0H220.69V2.52217H234.562V0Z" fill="white"/>
<path d="M123.586 5.46394H110.173V0H107.192V13.8719H110.173V8.10859H123.586V5.46394Z" fill="#EA424F"/>
<path d="M126.108 11.3498H112.236V13.8719H126.108V11.3498Z" fill="#EA424F"/>
<path d="M126.108 0H112.236V2.52217H126.108V0Z" fill="#EA424F"/>
<path d="M44.138 0H41.6158V13.8719H44.138V0Z" fill="white"/>
<path d="M60.41 3.16228C60.3328 2.82055 60.2121 2.48952 60.0506 2.17682C59.8892 1.86538 59.6863 1.57597 59.4471 1.31606C59.2034 1.04629 58.9201 0.812995 58.6062 0.623733C58.2701 0.422809 57.9072 0.267521 57.5278 0.162178C57.1089 0.0541552 56.6773 -0.000366695 56.2439 1.85598e-06H46.6921V2.65086H56.199C56.399 2.64871 56.5975 2.68469 56.7832 2.75684C57.0837 2.90133 57.3141 3.15429 57.4251 3.46166C57.4814 3.61153 57.5095 3.76995 57.5085 3.92946V9.93599C57.509 10.0949 57.483 10.2529 57.4315 10.4038C57.3811 10.5563 57.298 10.6966 57.1875 10.8155C57.0694 10.9414 56.925 11.0413 56.7639 11.1086C56.5757 11.1877 56.3719 11.2261 56.1669 11.2209H46.6601V13.8718H56.2119C56.6603 13.8752 57.1071 13.8207 57.5406 13.7096C57.9243 13.6075 58.2915 13.4543 58.6319 13.2543C58.9445 13.071 59.2261 12.8416 59.4664 12.5744C59.7015 12.3127 59.9021 12.0236 60.0634 11.7136C60.2209 11.4042 60.3394 11.0776 60.4164 10.7406C60.4929 10.4026 60.5317 10.0575 60.532 9.71145V4.1977C60.533 3.84913 60.492 3.50162 60.41 3.16228Z" fill="white"/>
<path d="M79.4483 5.46394H66.0367V0H63.0542V13.8719H66.0367V8.10859H79.4483V5.46394Z" fill="white"/>
<path d="M81.9704 11.3498H68.0985V13.8719H81.9704V11.3498Z" fill="white"/>
<path d="M81.9704 0H68.0985V2.52217H81.9704V0Z" fill="white"/>
<path d="M252.992 8.24581C253.374 8.14851 253.739 7.99716 254.075 7.79674C254.392 7.60925 254.677 7.37799 254.923 7.11057C255.16 6.84659 255.362 6.5554 255.524 6.24365C255.681 5.92934 255.799 5.59856 255.876 5.2581C255.959 4.91243 256.001 4.55877 256 4.20402C256 3.85791 255.961 3.51281 255.883 3.17484C255.804 2.8369 255.685 2.50848 255.53 2.19561C255.368 1.88234 255.166 1.58909 254.93 1.32236C254.684 1.05273 254.399 0.819417 254.082 0.630025C253.743 0.427981 253.376 0.272603 252.992 0.168467C252.567 0.054845 252.128 -0.00184487 251.687 4.57712e-05H241.971V2.65092H251.628C251.827 2.64794 252.024 2.69054 252.202 2.77518C252.38 2.85982 252.535 2.98399 252.653 3.13738C252.772 3.28549 252.859 3.45529 252.907 3.6364C252.964 3.82058 252.993 4.01186 252.992 4.20402C252.988 4.39831 252.957 4.59122 252.901 4.77781C252.846 4.95693 252.76 5.12578 252.646 5.27683C252.529 5.42058 252.383 5.53957 252.215 5.62615C252.036 5.72179 251.833 5.76919 251.628 5.76336H240.111V4.57712e-05H237.084V13.8719H240.111V8.3955H243.224L251.054 13.8532H255.713L247.609 8.3955H251.674C252.118 8.39862 252.561 8.34833 252.992 8.24581Z" fill="white"/>
<path d="M101.667 8.24581C102.049 8.14851 102.413 7.99716 102.748 7.79674C103.064 7.61084 103.347 7.37934 103.589 7.11057C103.83 6.84968 104.031 6.55794 104.188 6.24365C104.35 5.93069 104.47 5.59959 104.546 5.2581C104.63 4.91243 104.671 4.55877 104.67 4.20402C104.67 3.85791 104.631 3.51281 104.553 3.17484C104.474 2.83594 104.354 2.50723 104.194 2.19561C104.037 1.88124 103.838 1.5877 103.602 1.32236C103.357 1.05273 103.071 0.819417 102.755 0.630025C102.417 0.427981 102.051 0.272603 101.667 0.168467C101.243 0.054845 100.805 -0.00184487 100.364 4.57712e-05H90.6391V2.65092H100.28C100.488 2.64529 100.695 2.69261 100.879 2.78813C101.048 2.86976 101.193 2.98963 101.302 3.13738C101.421 3.28549 101.508 3.45529 101.556 3.6364C101.614 3.82058 101.642 4.01186 101.641 4.20402C101.637 4.39831 101.606 4.59122 101.55 4.77781C101.496 4.95693 101.41 5.12578 101.296 5.27683C101.179 5.42058 101.033 5.53957 100.866 5.62615C100.687 5.72093 100.484 5.76827 100.28 5.76336H88.7826V4.57712e-05H85.7537V13.8719H88.7826V8.3955H91.8898L99.7064 13.8532H104.357L96.2671 8.3955H100.325C100.777 8.40073 101.228 8.35043 101.667 8.24581Z" fill="#EA424F"/>
<path d="M195.468 0H195.412H191.685V13.8719H195.412L195.468 0Z" fill="white"/>
<path d="M209.34 7.92462V13.8719H211.862V3.78326L209.34 7.92462Z" fill="white"/>
<path d="M205.547 9.47472L211.862 0H208.38L201.952 9.64783L196.729 1.76257V7.04417L200.636 12.87C200.706 12.9731 200.787 13.0844 200.879 13.2039C200.971 13.3199 201.073 13.4276 201.185 13.5255C201.295 13.6225 201.416 13.7056 201.547 13.7729C201.669 13.8381 201.807 13.8722 201.946 13.8719C202.089 13.8729 202.231 13.8389 202.358 13.7729C202.488 13.7041 202.609 13.6211 202.72 13.5255C202.831 13.4276 202.934 13.3199 203.026 13.2039C203.117 13.0844 203.198 12.9731 203.269 12.87L205.547 9.47472Z" fill="white"/>
<path d="M34.0427 11.1718H25.0373C24.8087 11.1684 24.5833 11.1183 24.3762 11.0246C24.166 10.9252 23.974 10.7933 23.8075 10.6343C23.6417 10.472 23.5054 10.2838 23.4042 10.0776C23.3059 9.87762 23.254 9.65922 23.2522 9.43775V0H23.186C22.6033 0.25067 22.0742 0.604379 21.6256 1.04295C21.1724 1.47319 20.8088 1.98371 20.5545 2.54666C20.3 3.11377 20.1716 3.72632 20.1776 4.34459V9.16266C20.1705 9.78788 20.3012 10.4074 20.5611 10.9798C20.8123 11.5391 21.1739 12.0455 21.6256 12.4707C21.8525 12.6758 22.0933 12.866 22.3464 13.0401C22.6061 13.2133 22.883 13.3612 23.1728 13.4816C23.4627 13.6043 23.7637 13.7007 24.072 13.7695C24.3915 13.8362 24.7172 13.8705 25.044 13.8719H34.0493L34.0427 11.1718Z" fill="white"/>
<path d="M37.4892 2.90503C37.2579 2.34209 36.9272 1.83165 36.515 1.40141C36.1071 0.962843 35.6258 0.609136 35.0959 0.358469C34.5618 0.11634 33.9865 -0.00561153 33.406 0.000198232H25.2217V2.71953H33.406C33.6249 2.71762 33.8418 2.76332 34.0435 2.85387C34.2397 2.9386 34.4177 3.06482 34.5667 3.22495C34.717 3.38112 34.8357 3.56838 34.9154 3.7752C34.9999 3.98997 35.0428 4.22067 35.0417 4.45347V13.8719H35.1138C35.3749 13.7501 35.6246 13.6023 35.8595 13.4305C36.0897 13.2564 36.3087 13.0661 36.515 12.861C36.9259 12.4359 37.2548 11.9295 37.4832 11.3702C37.7196 10.7978 37.8385 10.1782 37.832 9.55299V4.73496C37.8417 4.10595 37.7249 3.482 37.4892 2.90503Z" fill="white"/>
<path d="M180.142 13.7763C180.17 13.8063 180.204 13.8304 180.242 13.8469C180.281 13.8634 180.322 13.8719 180.364 13.8719C180.407 13.8719 180.448 13.8634 180.487 13.8469C180.525 13.8304 180.559 13.8063 180.587 13.7763L182.857 11.3498H177.813L180.142 13.7763Z" fill="white"/>
<path d="M181.669 1.00189C181.214 0.333961 180.771 0 180.329 0C179.886 0 179.45 0.333961 178.995 1.00189L170.246 13.8719H173.824L180.335 4.224L186.852 13.8719H190.424L181.669 1.00189Z" fill="white"/>
</svg>
