<svg width="68" height="68" viewBox="0 0 68 68" fill="none" xmlns="http://www.w3.org/2000/svg">
<path d="M57.9688 32.6562H43.3438V18.0312C43.3438 16.9112 42.4325 16 41.3125 16H26.6875C25.5675 16 24.6562 16.9112 24.6562 18.0312V32.6562H10.0312C8.91122 32.6562 8 33.5675 8 34.6875V49.3125C8 50.4325 8.91122 51.3438 10.0312 51.3438H24.6562C25.0264 51.3438 25.3727 51.2426 25.6719 51.0689C25.9711 51.2426 26.3173 51.3438 26.6875 51.3438H41.3125C41.6827 51.3438 42.0289 51.2426 42.3281 51.0689C42.6273 51.2426 42.9736 51.3438 43.3438 51.3438H46.086C46.6469 51.3438 47.1017 50.889 47.1017 50.3281C47.1017 49.7673 46.6469 49.3125 46.086 49.3125H43.3438V34.6875H57.9688V49.3125H55.2265C54.6656 49.3125 54.2108 49.7673 54.2108 50.3281C54.2108 50.889 54.6656 51.3438 55.2265 51.3438H57.9688C59.0888 51.3438 60 50.4325 60 49.3125V34.6875C60 33.5675 59.0888 32.6562 57.9688 32.6562ZM26.6875 18.0312H41.3125V32.6562H26.6875V18.0312ZM10.0312 49.3125V34.6875H24.6562V49.3125H10.0312ZM26.6875 49.3125V34.6875H41.3125V49.3125H26.6875Z" fill="white"/>
<path d="M50.6562 51.3438C51.2172 51.3438 51.6719 50.889 51.6719 50.3281C51.6719 49.7672 51.2172 49.3125 50.6562 49.3125C50.0953 49.3125 49.6406 49.7672 49.6406 50.3281C49.6406 50.889 50.0953 51.3438 50.6562 51.3438Z" fill="white"/>
<path d="M18.4725 37.8145C18.469 37.8052 18.4653 37.7958 18.4615 37.7866C18.2765 37.3372 17.8431 37.047 17.3573 37.047C17.3569 37.047 17.3565 37.047 17.356 37.047C16.8697 37.0475 16.4364 37.3386 16.2521 37.7888C16.2489 37.7965 16.2459 37.8042 16.2429 37.812L13.286 45.5757C13.0864 46.0999 13.3495 46.6867 13.8737 46.8863C13.9926 46.9316 14.1148 46.9531 14.2349 46.9531C14.6442 46.9531 15.03 46.7039 15.1842 46.2987L15.6715 45.0192H19.0204L19.5021 46.2958C19.7001 46.8206 20.286 47.0855 20.8109 46.8873C21.3357 46.6893 21.6005 46.1033 21.4025 45.5784L18.4725 37.8145ZM16.4452 42.988L17.3537 40.6027L18.2539 42.988H16.4452Z" fill="white"/>
<path d="M50.1955 37.1635H48.0311C47.7614 37.1635 47.5027 37.2708 47.3122 37.4616C47.1217 37.6526 47.0149 37.9114 47.0154 38.181C47.0173 39.1731 47.0247 44.9113 47.0309 45.8246C47.0319 46.0939 47.1398 46.3519 47.331 46.5417C47.5213 46.7306 47.7785 46.8366 48.0465 46.8366H48.0504C48.1157 46.8363 49.6595 46.8304 50.2764 46.8195C52.606 46.7789 54.297 44.7519 54.297 42.0001C54.2971 39.1072 52.6487 37.1635 50.1955 37.1635ZM50.241 44.7886C49.9682 44.7933 49.4959 44.7972 49.0588 44.7999C49.0559 43.8985 49.0501 40.1313 49.0484 39.1947H50.1954C52.1164 39.1947 52.2657 41.3419 52.2657 42C52.2658 43.3703 51.6397 44.7641 50.241 44.7886Z" fill="white"/>
<path d="M35.2226 41.1091C34.2606 40.7543 33.3648 40.3679 33.0841 40.2452C32.8855 40.0828 32.8924 39.8582 32.9059 39.7641C32.925 39.6311 33.0222 39.3058 33.5103 39.1587C34.603 38.829 35.619 39.6305 35.6486 39.6541C36.0777 40.0099 36.7147 39.9531 37.074 39.5256C37.435 39.0962 37.3795 38.4556 36.9501 38.0947C36.8753 38.0316 35.0913 36.5606 32.9244 37.2137C31.8255 37.5448 31.0479 38.4114 30.8953 39.4755C30.7519 40.4747 31.1849 41.4358 32.0256 41.9838C32.0705 42.013 32.1176 42.0387 32.1665 42.0606C32.2121 42.0809 33.2974 42.5639 34.5196 43.0149C34.7833 43.1122 35.6353 43.4742 35.5322 44.0521C35.4558 44.4795 34.932 44.9217 34.1873 44.9217C33.4133 44.9217 32.6689 44.6101 32.1959 44.0881C31.8191 43.6723 31.1769 43.641 30.7612 44.0175C30.3456 44.3942 30.314 45.0365 30.6906 45.4521C31.555 46.4059 32.8295 46.9529 34.1873 46.9529C35.8621 46.9529 37.2686 45.8832 37.5319 44.4091C37.7301 43.2987 37.2275 41.8487 35.2226 41.1091Z" fill="white"/>
<path d="M38.4639 20.4247C37.9136 20.3152 37.379 20.6724 37.2695 21.2225L36.3812 25.686L34.9706 21.1072C34.8054 20.5713 34.2372 20.2708 33.7009 20.4357C33.3377 20.5476 33.0833 20.8447 33.0079 21.1913L31.6163 25.6869L30.7306 21.2092C30.6217 20.659 30.0874 20.3008 29.5372 20.41C28.9869 20.5187 28.6291 21.0531 28.7379 21.6033L30.2722 29.3598C30.2818 29.4084 30.2949 29.4561 30.3116 29.5028C30.4806 29.9785 30.9317 30.2965 31.436 30.2965H31.4442C31.9517 30.293 32.4024 29.9679 32.5659 29.4874C32.5689 29.4785 32.5717 29.4696 32.5745 29.4606L33.9998 24.8556L35.4187 29.4616C35.423 29.4754 35.4276 29.4892 35.4324 29.5027C35.6015 29.9784 36.0525 30.2964 36.5568 30.2964H36.5649C37.0724 30.2929 37.5232 29.9678 37.6865 29.4873C37.701 29.4452 37.7124 29.4021 37.7212 29.3584L39.2616 21.6188C39.3713 21.0689 39.014 20.5343 38.4639 20.4247Z" fill="white"/>
</svg>
