<svg width="18" height="18" viewBox="0 0 18 18" fill="none" xmlns="http://www.w3.org/2000/svg">
<path d="M14.5714 2.63672C12.8733 0.935156 10.6128 0 8.20809 0C6.4784 0 4.79793 0.492188 3.34949 1.42383C1.93973 2.33086 0.811211 3.60352 0.086992 5.11172C-0.123946 5.54766 0.0623826 6.075 0.49832 6.28594C0.934258 6.49688 1.4616 6.31055 1.67254 5.87461C2.25613 4.66172 3.16316 3.63516 4.29871 2.90391C5.4659 2.15508 6.8159 1.75781 8.20809 1.75781C12.2018 1.75781 15.4503 5.00625 15.4503 9C15.4503 12.9937 12.2018 16.2422 8.20809 16.2422C6.8159 16.2422 5.4659 15.8449 4.29871 15.0996C3.16316 14.3719 2.25613 13.3418 1.67254 12.1289C1.4616 11.693 0.937773 11.5066 0.49832 11.7176C0.0623826 11.9285 -0.123946 12.4523 0.086992 12.8918C0.811211 14.4 1.93621 15.6762 3.34949 16.5797C4.79793 17.5078 6.4784 18 8.20809 18C10.6128 18 12.8733 17.0648 14.5714 15.3633C16.2729 13.6617 17.2081 11.4047 17.2081 9C17.2081 6.59531 16.2729 4.33477 14.5714 2.63672Z" fill="#BF8D81"/>
<path d="M4.10886 9.00001C4.10886 9.48517 4.50261 9.87892 4.98776 9.87892H9.98698L8.68972 11.1762C8.34518 11.5207 8.34518 12.0762 8.68972 12.4207C8.86198 12.593 9.08698 12.6774 9.31198 12.6774C9.53698 12.6774 9.76198 12.593 9.93425 12.4207L12.1456 10.2094C12.469 9.88595 12.6448 9.45704 12.6448 9.00353C12.6448 8.55001 12.4655 8.11759 12.1456 7.79767L9.93425 5.58634C9.58972 5.24181 9.03425 5.24181 8.68972 5.58634C8.34518 5.93087 8.34518 6.48634 8.68972 6.83087L9.98698 8.12814H4.98776C4.50261 8.12111 4.10886 8.51486 4.10886 9.00001Z" fill="#BF8D81"/>
</svg>
