<svg width="68" height="68" viewBox="0 0 68 68" fill="none" xmlns="http://www.w3.org/2000/svg">
<path d="M49.1858 53.744H5.72687C4.51987 53.744 3.53812 52.7479 3.53812 51.5234V49.9004H48.8777C50.1072 49.9004 50.1083 48.041 48.8777 48.041H2.93277C2.24134 48.041 1.67875 48.6047 1.67875 49.2974V51.5234C1.67875 53.7729 3.49483 55.6034 5.72687 55.6034H49.1858C50.4154 55.6034 50.4164 53.744 49.1858 53.744Z" fill="white"/>
<path d="M28.884 50.8923C27.6544 50.8923 27.6534 52.7517 28.884 52.7517H38.9177C40.1473 52.7517 40.1484 50.8923 38.9177 50.8923H28.884Z" fill="white"/>
<path d="M6.82394 23.1892V14.2562H60.9796V27.4498C60.9796 28.6789 62.839 28.6807 62.839 27.4498V14.15C62.839 13.1834 62.0562 12.3969 61.0941 12.3969H6.70707C5.7463 12.3969 4.9643 13.1831 4.9643 14.15V23.1892C4.96457 24.4182 6.82394 24.4201 6.82394 23.1892Z" fill="white"/>
<path d="M6.82388 46.2428V28.9347C6.82388 27.7056 4.96451 27.7038 4.96451 28.9347V46.2428C4.96451 47.4719 6.82388 47.4737 6.82388 46.2428Z" fill="white"/>
<path d="M65.3916 43.4139C65.905 43.4139 66.3213 42.9977 66.3213 42.4843V32.0107C66.3213 30.609 65.1809 29.4686 63.7792 29.4686H53.4121C52.0104 29.4686 50.8701 30.609 50.8701 32.0107V53.0614C50.8701 54.4632 52.0104 55.6035 53.4121 55.6035H63.7792C65.1809 55.6035 66.3213 54.4632 66.3213 53.0614V48.2297C66.3213 47.0007 64.4619 46.9988 64.4619 48.2297V53.0614C64.4619 53.4378 64.1556 53.7441 63.7792 53.7441H53.4121C53.0358 53.7441 52.7295 53.4378 52.7295 53.0614V32.0107C52.7295 31.6343 53.0358 31.328 53.4121 31.328H63.7792C64.1556 31.328 64.4619 31.6343 64.4619 32.0107V42.4843C64.4619 42.9977 64.8784 43.4139 65.3916 43.4139Z" fill="white"/>
<path d="M62.4014 48.041H54.7897C53.5601 48.041 53.5591 49.9004 54.7897 49.9004H62.4014C63.631 49.9004 63.6321 48.041 62.4014 48.041Z" fill="white"/>
<path d="M62.4014 33.5717H54.7897C53.5601 33.5717 53.5591 35.431 54.7897 35.431H62.4014C63.631 35.431 63.6321 33.5717 62.4014 33.5717Z" fill="white"/>
<path d="M57.5723 50.8923C56.3427 50.8923 56.3417 52.7517 57.5723 52.7517H59.6179C60.8475 52.7517 60.8485 50.8923 59.6179 50.8923H57.5723Z" fill="white"/>
<path d="M41.6511 32.2988L39.89 30.5377C39.0193 29.6675 37.7063 30.9837 38.5754 31.8525L40.3365 33.6136C41.2069 34.4833 42.521 33.1687 41.6511 32.2988Z" fill="white"/>
<path d="M34.6588 27.5506C34.8968 27.5506 35.1348 27.4598 35.3162 27.2784C35.6793 26.9153 35.6793 26.3266 35.3162 25.9635L27.8999 18.5473C27.0311 17.6784 25.7146 18.9914 26.5853 19.8619C34.3466 27.4779 33.9509 27.5506 34.6588 27.5506Z" fill="white"/>
<path d="M26.1526 27.2703L39.9043 41.0219C40.7747 41.8916 42.0888 40.5768 41.2188 39.7071L27.4672 25.9554C26.5962 25.0852 25.2835 26.4014 26.1526 27.2703Z" fill="white"/>
</svg>
