<svg width="68" height="68" viewBox="0 0 68 68" fill="none" xmlns="http://www.w3.org/2000/svg">
<path d="M52.6469 49.8844H49.8844C49.4062 46.5907 46.5906 44.1469 43.2969 44.1469H37.6125V27.9438C42.6063 25.9782 45.05 20.2938 43.0844 15.3001C41.1187 10.3063 35.4344 7.86256 30.4406 9.82818C25.4469 11.7938 23.0031 17.4782 24.9688 22.4719C25.9781 24.9688 27.9437 26.9344 30.4406 27.9438V44.1469H24.7031C21.4094 44.1469 18.5937 46.5907 18.1156 49.8844H15.3531C13.6 49.8844 12.2188 51.3188 12.2188 53.0188V55.675C12.2188 57.4282 13.6531 58.8094 15.3531 58.8094H52.5938C54.3469 58.8094 55.7281 57.375 55.7281 55.675V53.0188C55.7812 51.2657 54.3469 49.8844 52.6469 49.8844ZM26.1375 18.9126C26.1375 14.5563 29.6437 11.0501 34 11.0501C38.3563 11.0501 41.8625 14.5563 41.8625 18.9126C41.8625 22.3126 39.6313 25.3938 36.3906 26.4032C34.85 26.8813 33.2031 26.8813 31.6094 26.4032C28.3687 25.3407 26.1375 22.3126 26.1375 18.9126ZM32.3 28.475C33.4156 28.6876 34.5313 28.6876 35.7531 28.475V44.1469H32.3V28.475ZM24.7031 46.0063H43.2969C45.5812 46.0063 47.5469 47.6532 48.025 49.8844H19.975C20.4531 47.6532 22.4187 46.0063 24.7031 46.0063ZM53.9219 55.675C53.9219 56.3657 53.3375 56.95 52.6469 56.95H15.3531C14.6625 56.95 14.0781 56.3657 14.0781 55.675V53.0188C14.0781 52.3282 14.6625 51.7438 15.3531 51.7438H52.5938C53.2844 51.7438 53.8688 52.3282 53.8688 53.0188L53.9219 55.675Z" fill="white"/>
<path d="M34 14.875C34.5313 14.875 34.9563 14.45 34.9563 13.9188C34.9563 13.3875 34.5313 13.0156 34 13.0156C30.7594 13.0156 28.1031 15.6719 28.1031 18.9125C28.1031 19.4437 28.5281 19.8688 29.0594 19.8688C29.5906 19.8688 30.0156 19.4437 30.0156 18.9125C29.9625 16.6812 31.7688 14.875 34 14.875Z" fill="white"/>
</svg>
